<svg width="140" height="206" viewBox="0 0 140 206" fill="none" xmlns="http://www.w3.org/2000/svg">
<path d="M13.3559 92.2855C13.4127 84.3381 13.5146 76.3913 13.6614 68.4454C13.9086 54.0834 13.6884 44.2415 20.1559 30.6517C35.9096 -2.87276 82.8711 -10.3408 108.996 15.4427C125.146 31.3835 125.949 48.3921 126.195 69.3863L126.49 92.2728C135.193 99.3082 138.648 110.081 138.548 120.945C137.737 127.335 137.425 128.376 134.699 133.911C131.556 137.829 128.783 140.083 123.474 140.74C112.807 142.059 97.2057 132.288 95.9722 121.088C95.6218 118.083 96.5158 115.07 98.4446 112.741C102.741 107.461 110.547 107.755 115.969 111.006C117.782 112.09 119.321 114.383 121.725 113.461C123.281 111.425 121.405 109.494 119.804 108.302C119.832 96.8689 119.766 85.4363 119.608 74.0045C119.537 68.0025 119.802 57.2616 118.414 51.7102C113.48 32.7355 86.7231 30.1037 70.479 29.9864C54.0198 29.8678 26.2421 32.6194 21.5364 51.6991C20.1187 57.4476 20.3295 69.3485 20.2688 75.7506C20.1703 86.4738 20.1319 97.1976 20.1534 107.921L20.1581 108.227C18.7799 109.372 16.4369 111.649 18.2399 113.437C22.0797 114.149 29.5481 105.25 36.9055 109.444C41.8043 112.236 45.5421 116.461 43.6622 122.603C39.47 136.295 22.1087 145.169 9.16589 138.149C4.54075 133.811 3.13377 131.104 1.82724 124.86C1.38244 121.993 1.27042 119.088 1.49282 116.196C2.20445 106.741 6.15052 98.4743 13.3559 92.2855Z" fill="#315BDB"/>
<path d="M65.8461 18.9292C70.7907 19.5321 66.0061 28.0305 58.6139 23.9989L58.3192 23.6827C57.4304 22.7103 56.5936 21.1659 57.7842 20.1132C60.3688 19.7978 60.8484 22.0629 62.7926 22.2878C64.3061 21.6747 65.0459 20.2669 65.8461 18.9292Z" fill="#292522"/>
<path d="M72.9513 18.9014C74.858 19.1825 74.7504 20.2973 76.0086 21.5227C78.0698 23.5304 81.232 18.6442 82.8297 20.7219C82.8545 21.9065 82.8324 21.8544 82.3771 22.9713C77.4959 27.9166 69.5988 23.2224 72.9513 18.9014Z" fill="#292522"/>
<path d="M48.3756 122.564L91.5962 122.518C94.2452 134.427 105.464 143.165 117.197 145.072C116.46 149.755 115.787 155.317 114.827 159.848C117.986 161.487 119.934 162.536 122.583 164.983C129.04 170.941 131.294 180.59 127.12 188.55C126.744 189.254 126.358 189.949 125.955 190.637C129.327 191.972 137.315 192.055 139.324 195.678C139.545 203.018 97.5039 204.51 91.6928 204.731C67.2592 205.628 42.5554 205.385 18.2707 202.372C14.4701 201.9 0.818134 200.209 0 196.271C0.580006 192.75 10.8085 190.921 13.844 190.554C7.46226 179.911 10.8416 167.922 21.5148 161.738C22.6649 161.079 23.8374 160.461 25.0302 159.884C24.3158 155.602 23.1798 149.515 22.897 145.194C34.6555 142.418 45.6414 134.948 48.3756 122.564Z" fill="#315BDB"/>
<path d="M72.9212 187.093C75.6833 192.645 79.3201 196.235 85.8072 196.48C94.4769 196.812 103.307 196.461 111.976 196.58C119.239 196.676 121.22 195.749 125.955 190.636C129.327 191.972 137.315 192.054 139.324 195.677C139.545 203.017 97.5039 204.51 91.6928 204.731C67.2592 205.627 42.5554 205.385 18.2707 202.372C14.4701 201.9 0.818134 200.208 0 196.271C0.580006 192.75 10.8085 190.92 13.844 190.553C15.746 193.125 19.4906 196.207 22.7254 196.353C32.9171 196.812 43.3451 196.613 53.5495 196.494C59.8587 196.42 64.0001 192.75 66.6576 187.383C69.0582 187.394 70.5703 187.419 72.9212 187.093Z" fill="#292522"/>
<path d="M67.9906 148.83C68.5535 148.839 69.1191 148.841 69.682 148.841C72.0633 148.841 71.9778 148.85 73.5865 147.246C76.1526 146.913 76.6686 149.343 76.5775 151.38C76.4037 155.331 76.4892 160.952 75.3276 164.66C72.6373 173.258 69.6876 178.098 72.9215 187.094C70.5705 187.419 69.0584 187.394 66.6578 187.383C70.187 178.898 66.9586 172.952 64.5856 164.834C63.6957 161.791 62.773 150.447 64.1132 147.652C65.5983 146.493 66.9862 147.578 67.9906 148.83Z" fill="#F6F1EA"/>
<path d="M57.5982 37.132C58.1473 37.0456 58.1117 37.0903 58.6815 37.1527L58.8303 37.6877C56.5955 47.3914 50.9985 71.9472 46.6322 79.5168C41.464 77.9018 39.6785 76.688 33.5531 75.2921C30.8379 69.6421 29.7464 66.1905 28.2718 60.255C27.7652 57.5111 27.4608 55.2667 27.1396 52.5181C29.5212 46.9548 31.9461 44.9022 37.1176 41.9508C37.6308 48.7787 38.5662 55.8235 40.7632 62.3101C43.1077 55.9427 45.3729 45.6042 46.8919 38.8359C50.4249 38.0621 53.9998 37.4932 57.5982 37.132Z" fill="#315BDB"/>
<path d="M74.657 36.7907C80.8765 36.2968 89.0854 37.3051 91.853 43.8322C92.874 46.222 92.8519 48.9281 91.7978 51.3025C90.2057 54.8758 87.6754 56.145 84.3036 57.3887C84.8968 57.6229 85.4873 57.8699 86.0695 58.1295C92.3773 60.9747 93.6631 67.2162 90.9093 73.1675C86.4006 79.8858 77.6454 79.534 70.8216 77.2143C70.4656 71.891 72.789 40.4598 74.657 36.7907Z" fill="#315BDB"/>
<path d="M61.9622 79.8274C67.5711 79.2328 69.6378 81.0796 71.1057 86.4608C73.694 95.9431 74.6873 105.896 75.6972 115.652L66.3542 115.685C65.9459 112.813 66.4315 110.122 65.2781 107.832C64.221 107.056 64.3504 107.305 62.8132 107.167L60.0528 107.421C59.7628 110.186 59.4322 112.945 59.0614 115.702L48.7256 115.63C49.7755 111.116 51.0688 106.422 51.8963 101.891C53.5486 92.8431 49.9571 82.8516 61.9622 79.8274Z" fill="#315BDB"/>
<path d="M26.4739 78.1463C32.0306 77.8955 36.9168 78.4046 41.8253 81.2067C51.3855 86.6638 52.0389 98.8941 46.7852 107.565L45.0534 109.709C39.5836 103.828 33.5783 103.02 26.1621 105.056C26.3257 96.1166 26.2038 87.0608 26.4739 78.1463Z" fill="#315BDB"/>
<path d="M97.0208 40.4507C101.058 40.6626 105.619 43.2321 108.386 46.1346C113.764 51.776 113.53 57.318 113.441 64.4564C111.275 64.7516 102.081 65.6084 101.077 66.9102C101.309 69.0719 103.351 69.8842 105.34 69.8715C107.371 69.8585 108.381 68.672 109.656 67.2882L112.644 66.756L113.221 66.8677C113.792 68.1287 113.171 71.5464 112.923 72.9873C111.372 81.9327 97.9755 79.2407 95.4314 72.3389C92.5369 64.4773 94.0904 48.0181 97.0208 40.4507Z" fill="#315BDB"/>
<path d="M78.4483 62.1049C83.9807 61.8682 87.7858 66.4718 83.473 71.0456C75.907 75.5003 77.088 66.3739 78.4483 62.1049Z" fill="white"/>
<path d="M79.7091 43.2749C85.4071 43.4165 87.5704 47.8813 83.4756 51.9996C76.2462 55.9307 78.0121 46.3899 79.7091 43.2749Z" fill="white"/>
<path d="M61.394 89.1454C62.1354 89.1101 62.2726 89.1485 63.0151 89.2655C65.5355 90.8642 66.0459 96.7832 65.0029 99.3601C64.8787 99.6634 63.8537 99.7837 63.4977 99.864C62.2094 99.9368 60.7696 99.7152 59.4711 99.5712C59.3604 96.2214 59.1493 91.7695 61.394 89.1454Z" fill="white"/>
<path d="M35.8014 89.7031C42.1119 90.8731 42.9919 97.1988 38.9467 101.582C33.2929 104.788 34.5981 96.9915 34.709 93.8087C34.7606 92.3338 34.8207 90.8273 35.8014 89.7031Z" fill="white"/>
<path d="M104.068 54.3589C106.723 54.8561 109.386 57.1943 108.122 60.037C107.145 60.721 106.974 60.5083 105.581 60.6338C104.524 60.7318 102.556 61.1131 101.798 60.2453C100.101 58.3033 102.374 55.4728 104.068 54.3589Z" fill="white"/>
<path d="M91.3476 77.7422C93.3757 79.4946 94.7664 80.4298 97.0925 81.685C95.55 84.0933 94.2697 85.942 93.2019 88.6332C90.0811 96.5068 90.4895 107.286 90.9254 115.63C86.6761 115.682 82.4295 115.685 78.1829 115.644C78.9887 110.216 79.4605 107.901 81.1327 102.777C81.9411 100.675 83.078 99.6306 83.6602 97.416L83.3401 97.1117C81.8915 97.2692 78.71 98.2237 76.9965 98.6036C75.9231 92.1706 74.4414 86.8151 71.8311 80.8343C75.1036 80.9493 77.598 81.1709 80.8898 80.8721C81.8804 84.6043 82.3302 86.6506 84.3031 89.9342C86.9465 85.3088 87.9702 82.0848 91.3476 77.7422Z" fill="#315BDB"/>
<path d="M104.697 81.797C108.483 81.5964 110.445 82.3296 113.715 83.9399L113.549 94.6924C113.072 94.4115 112.589 94.1405 112.101 93.8795C110.122 92.8271 106.488 91.0203 104.297 91.6858C100.948 95.5891 114.385 95.6683 113.657 104.395C113.111 104.947 112.159 104.554 111.066 104.41C106.775 103.845 104.132 103.973 100.109 105.672C97.0679 107.42 96.3974 108.086 94.0327 110.721C93.7871 106.977 93.5884 103.746 93.6022 100.002C95.6634 101.222 101.204 104.665 103.525 103.423L103.516 102.769C101.138 98.1702 89.2425 97.5477 97.2887 85.8733C99.0436 83.3268 101.717 82.2311 104.697 81.797Z" fill="#315BDB"/>
</svg>
