<svg width="812" height="139" viewBox="0 0 812 139" fill="none" xmlns="http://www.w3.org/2000/svg">
<path d="M408.886 0.624549C442.348 -0.642922 477.8 0.514343 502.103 26.8863C526.938 53.8338 525.34 90.3578 498.558 114.936C473.453 136.611 439.709 135.472 408.739 135.148L408.886 0.624549Z" fill="black"/>
<path d="M443.37 32.8256C454.012 33.6584 463.111 36.677 471.04 44.1043C477.849 50.3804 481.786 59.1792 481.933 68.4373C482.025 79.1649 477.947 85.6186 470.955 92.8744C461.978 100.571 454.667 102.102 443.334 103.565C443.101 80.1262 443.34 56.2953 443.37 32.8256Z" fill="#F8F6F0"/>
<path d="M206.158 0.741244C218.393 -0.385394 232.425 0.202212 244.811 1.49417C265.07 3.61276 287.493 15.4117 283.409 39.5733C281.554 50.5518 274.409 56.3442 265.761 62.3448C279.413 68.033 291.697 75.6135 293.519 92.17C294.621 102.187 290.97 110.105 284.714 117.575C263.088 138.344 226.998 135.546 198.444 135.314C197.753 119.994 197.822 102.641 197.496 87.125L195.648 1.21195L206.158 0.741244ZM253.536 84.7061C246.768 78.5158 238.595 78.081 229.934 78.3321C230.071 87.9697 230.367 97.6012 230.82 107.227C239.431 106.927 244.24 106.571 251.823 101.918C257.067 96.8543 259.742 90.376 253.536 84.7061ZM228.233 26.2071L228.842 53.4112C235.258 52.7193 239.38 52.1807 245.045 48.4151C259.748 34.2647 242.564 25.9254 228.233 26.2071Z" fill="black"/>
<path d="M597.016 0.165334L609.299 0C615.25 40.9632 630.503 89.9047 640.851 130.176L605.3 133.042L596.869 100.957C586.533 100.902 575.31 100.669 564.937 101.171C563.443 101.245 563.829 101.238 562.947 102.396L553.408 133.476C541.829 133.078 527.605 131.523 515.867 130.562C531.518 89.0719 548.895 42.6042 561.472 0.538831C573.32 0.551077 585.168 0.428625 597.016 0.165334Z" fill="black"/>
<path d="M566.566 46.9638C572.959 45.4392 579.369 49.4191 580.839 55.83C582.308 62.2347 578.261 68.6087 571.838 70.017C565.501 71.4008 559.237 67.427 557.786 61.1019C556.341 54.7829 560.259 48.4701 566.566 46.9638Z" fill="#F8F6F0"/>
<path d="M568.066 52.9275C571.189 52.3397 574.214 54.3297 574.912 57.428C575.61 60.5323 573.73 63.6244 570.656 64.4327C568.568 64.9838 566.352 64.347 564.87 62.7795C563.382 61.212 562.88 58.9587 563.541 56.9075C564.209 54.8502 565.942 53.3255 568.066 52.9275Z" fill="black"/>
<path d="M593.281 46.9393C599.496 45.9229 605.411 49.9703 606.715 56.1362C608.019 62.2959 604.247 68.3945 598.155 69.9804C593.955 71.0764 589.491 69.7722 586.54 66.5882C583.588 63.4042 582.627 58.8548 584.035 54.7523C585.443 50.6438 588.995 47.6435 593.281 46.9393Z" fill="#F8F6F0"/>
<path d="M594.059 52.9094C596.19 52.6338 598.302 53.54 599.563 55.2728C600.825 57.0118 601.039 59.3018 600.121 61.2428C599.202 63.1838 597.292 64.4635 595.149 64.586C591.995 64.7574 589.271 62.4123 588.983 59.2712C588.689 56.1301 590.93 53.3196 594.059 52.9094Z" fill="black"/>
<path d="M92.3264 2.55343C104.924 2.40035 117.523 2.36358 130.121 2.44318C114.097 45.5862 98.8651 89.0169 84.4313 132.711C72.2366 132.754 60.0438 132.968 47.8553 133.348L22.2971 66.3005L0 7.39678L40.3803 4.16379C48.8337 31.5706 58.0091 59.3385 65.9042 86.8616C75.3006 59.1426 83.1295 30.3766 92.3264 2.55343Z" fill="black"/>
<path d="M303.495 1.34708C331.105 0.551085 363.048 0.961269 390.817 1.28579L389.04 31.7419C372.549 31.7113 354.802 30.0519 337.936 29.7641L338.264 53.8644C351.134 53.7419 366.144 52.652 379.153 52.0336L378.532 80.1874L338.995 80.2425L339.341 90.2353L339.54 104.569C356.557 104.331 374.238 103.167 391.431 102.751C391.326 113.062 391.165 123.367 390.949 133.672L307.146 132.925C306.97 89.6598 303.662 44.6738 303.495 1.34708Z" fill="black"/>
<path d="M778.289 3.141C789.757 2.00211 800.65 4.11456 811.017 9.03137C808.794 18.5956 806.479 28.1414 804.067 37.6566C794.57 34.3747 784.045 30.3518 774.823 36.9708C768.063 41.257 772.797 49.6884 777.187 54.097C791.882 68.8658 813.692 78.7116 810.906 103.541C809.841 113.356 804.826 122.32 797.013 128.37C784.13 138.509 768.002 139.979 752.266 138.068C739.169 135.687 733.358 132.46 722.404 125.033C725.955 114.231 729.721 103.504 733.695 92.8559C743.571 97.4359 764.481 111.194 773.813 99.7382C780.114 91.9987 762.663 78.7362 757.624 74.2663C745.304 63.3979 734.264 50.6681 739.487 32.8929C744.924 14.389 759.969 5.36367 778.289 3.141Z" fill="#63C7B2"/>
<path d="M657.549 0.459292L658.798 0.765445C661.051 4.30457 665.056 14.0096 666.984 18.3937L681.38 51.2867C690.46 34.43 699.283 17.0527 708.217 0.0612793C717.983 3.91268 727.78 7.70287 737.601 11.4196C734.117 18.5529 727.566 29.2009 723.427 36.3159C715.228 50.454 706.962 64.5431 698.616 78.5955C695.646 83.9593 697.269 123.563 697.195 132.582L659.667 132.552C661.033 115.279 662.906 97.7913 664.376 80.4569C652.044 57.5016 638.2 34.4116 626.303 11.3522C636.234 7.53756 647.421 3.94331 657.549 0.459292Z" fill="black"/>
<path d="M152.581 5.71281C160.025 5.35767 167.671 5.39434 175.136 5.33923C175.811 46.5718 176.02 91.4599 175.535 132.546L159.597 132.76L138.14 133.354C137.864 90.7741 138.725 48.5251 138.927 5.97605C143.462 5.93932 148.042 5.81077 152.581 5.71281Z" fill="black"/>
</svg>
